<svg xmlns="http://www.w3.org/2000/svg" width="53.87" height="43.61" viewBox="0 0 261 193" version="1.1"><path d="M 99.684 16.649 C 99.328 17.006, 92.535 17.597, 84.589 17.963 L 70.143 18.629 64.321 22.611 C 60.393 25.299, 58.387 27.382, 58.151 29.020 C 57.959 30.354, 56.722 32.730, 55.401 34.300 C 54.080 35.870, 52.795 38.132, 52.545 39.327 C 52.295 40.522, 51.578 43.750, 50.953 46.500 C 48.741 56.221, 48.664 58.971, 50.545 61.050 C 51.516 62.122, 52.894 63, 53.608 63 C 54.574 63, 54.757 64.253, 54.324 67.909 C 53.479 75.049, 54.521 78.860, 58.901 84.635 L 62.795 89.770 60.833 96.635 C 58.416 105.089, 58.932 115.602, 61.971 119.807 C 63.574 122.026, 64.120 125.457, 65.074 139.293 C 66.114 154.386, 66.068 156.268, 64.616 157.872 C 62.028 160.732, 62.515 166.636, 65.500 168.592 C 69.134 170.973, 79.517 171.543, 84.922 169.658 C 88.831 168.294, 89.988 168.283, 94.882 169.558 C 97.928 170.351, 102.819 171, 105.751 171 C 109.710 171, 111.864 171.579, 114.126 173.250 C 116.704 175.155, 118.425 175.498, 125.348 175.487 C 132.020 175.477, 134.075 175.089, 136.512 173.378 C 140.337 170.695, 147.877 169.745, 155.472 170.989 C 162.147 172.083, 173.094 170.808, 176.585 168.530 C 180.410 166.035, 186.969 144.789, 187.174 134.232 L 187.296 127.965 193.477 123.554 C 200.318 118.672, 205.897 111.345, 209.146 102.977 C 213.227 92.463, 212.458 69.546, 207.929 66.717 C 203.910 64.207, 189.022 76.590, 184.051 86.579 C 182.704 89.285, 179.779 93.525, 177.551 96 L 173.500 100.500 167.339 95.511 C 163.950 92.767, 161.389 90.180, 161.648 89.761 C 161.906 89.342, 163.813 89, 165.885 89 C 170.399 89, 173.439 86.178, 174.503 81 C 174.899 79.075, 175.874 76.761, 176.669 75.857 C 177.581 74.821, 178.328 70.936, 178.691 65.343 C 179.225 57.092, 179.080 56.122, 176.621 51.485 C 171.405 41.650, 167.344 38.530, 152.495 32.952 C 146.525 30.710, 140.307 27.753, 138.678 26.382 C 134.492 22.860, 127.003 19.236, 120.307 17.492 C 114.556 15.994, 100.898 15.436, 99.684 16.649 M 106 18.887 C 106 19.396, 105.115 19.581, 104.034 19.299 C 102.952 19.016, 99.697 19.353, 96.800 20.048 C 93.903 20.743, 86.656 21.354, 80.697 21.406 C 71.478 21.486, 69.715 21.761, 68.881 23.250 C 68.342 24.212, 67.298 25, 66.561 25 C 65.824 25, 64.159 25.885, 62.861 26.967 C 60.635 28.821, 60.614 28.937, 62.500 28.997 C 64.323 29.055, 64.347 29.150, 62.773 30.067 C 60.818 31.207, 55 39.314, 55 40.899 C 55 41.470, 55.788 41.654, 56.750 41.308 C 58.077 40.832, 57.914 41.323, 56.079 43.336 C 54.748 44.797, 53.945 46.278, 54.294 46.628 C 54.644 46.977, 54.425 48.206, 53.808 49.358 C 48.578 59.131, 53.463 63.859, 63.680 58.913 C 68.370 56.642, 72.354 52.381, 71.332 50.728 C 70.979 50.158, 71.158 49.980, 71.729 50.333 C 73.112 51.187, 74.709 46.736, 75.383 40.148 C 76.062 33.509, 79.803 26.903, 84.544 23.973 C 88.863 21.303, 90.072 21.763, 85.974 24.517 C 82.661 26.744, 78.544 33.806, 77.533 39 C 77.158 40.925, 76.629 43.288, 76.358 44.250 C 75.976 45.605, 76.501 46.022, 78.683 46.100 C 81.252 46.191, 81.300 46.257, 79.234 46.850 C 77.987 47.207, 75.287 49.750, 73.234 52.500 C 70.719 55.867, 67.807 58.316, 64.316 60 C 58.508 62.801, 56.732 65.656, 56.820 72.048 C 56.881 76.434, 60.173 82.972, 64.228 86.758 L 66.647 89.017 64.349 95.758 C 62.163 102.172, 60.994 114.146, 63.007 109.500 C 63.576 108.188, 63.695 109.220, 63.354 112.500 C 63.010 115.815, 63.156 117.046, 63.788 116.151 C 64.491 115.155, 64.914 115.726, 65.403 118.337 C 66.132 122.218, 72.318 132.077, 76.473 135.976 C 78.772 138.135, 79.026 138.199, 78.449 136.476 C 78.085 135.389, 78.681 135.850, 79.774 137.500 C 82.741 141.979, 90.270 148.969, 89.468 146.500 C 89.111 145.400, 89.910 146.300, 91.245 148.500 C 92.579 150.700, 93.509 152.698, 93.312 152.940 C 93.115 153.182, 90.688 151.157, 87.918 148.440 C 83.277 143.886, 82.971 143.734, 84.007 146.489 C 87.471 155.694, 93.106 159.618, 104.368 160.670 L 111 161.289 111 154.041 L 111 146.793 107.299 150.043 C 105.148 151.931, 103.437 152.812, 103.215 152.146 C 103.005 151.516, 102.244 151, 101.524 151 C 100.803 151, 99.931 150.261, 99.584 149.359 C 99.065 148.005, 99.214 147.933, 100.433 148.945 C 101.247 149.620, 102.344 149.906, 102.871 149.580 C 103.398 149.254, 103.993 149.480, 104.194 150.083 C 104.395 150.685, 106.720 148.868, 109.361 146.045 C 112.189 143.022, 113.896 141.752, 113.514 142.956 C 112.562 145.955, 114.222 145.473, 119.667 141.169 C 122.333 139.062, 125.031 137.510, 125.664 137.721 C 127.222 138.241, 129.854 134.294, 130.600 130.319 C 130.963 128.384, 131.966 126.828, 133.077 126.476 C 135.863 125.591, 141.729 118.292, 145.112 111.500 C 146.756 108.200, 147.803 106.625, 147.439 108 C 145.671 114.682, 139.816 123.600, 135.295 126.500 C 133.288 127.788, 131.958 129.621, 131.562 131.649 C 130.843 135.330, 127.450 140, 125.494 140 C 124.745 140, 121.740 141.446, 118.816 143.214 C 115.892 144.982, 113.356 146.513, 113.181 146.617 C 113.005 146.720, 112.882 150.970, 112.906 156.061 C 112.977 171.195, 114.891 174, 125.146 174 C 134.409 174, 136.372 172.293, 143.150 158.352 C 148.800 146.731, 151.207 142.696, 148.954 148.621 C 147.921 151.337, 149.534 158, 151.224 158 C 151.676 158, 151.311 159.122, 150.413 160.493 C 146.394 166.626, 152.102 170.667, 163.493 169.753 C 175.070 168.823, 177.394 166.173, 182.623 147.945 C 186.035 136.051, 185.732 125.449, 181.731 116.719 C 178.896 110.531, 170.814 101.360, 163.685 96.240 L 159.310 93.098 155.405 97.169 C 151.605 101.129, 143.023 106.018, 140 105.943 C 139.175 105.923, 140.708 105.044, 143.406 103.991 C 146.105 102.937, 149.653 100.820, 151.291 99.287 C 154.566 96.222, 160 88.247, 160 86.505 C 160 85.898, 158.464 84.846, 156.586 84.167 C 152.037 82.522, 146.695 76.440, 144.498 70.404 C 143.516 67.707, 141.765 64.653, 140.607 63.617 L 138.500 61.734 140.649 62.402 C 142.736 63.051, 142.819 62.736, 143.517 51.572 C 143.912 45.248, 143.946 38.920, 143.592 37.511 C 142.007 31.194, 128.870 21.556, 120.704 20.718 C 118.670 20.509, 116.704 20.037, 116.336 19.669 C 115.116 18.449, 112.844 18.938, 113.633 20.250 C 114.205 21.203, 114.041 21.235, 112.942 20.388 C 110.927 18.834, 106 17.769, 106 18.887 M 108.500 22 C 109.495 23.100, 110.535 24, 110.810 24 C 111.085 24, 110.495 23.100, 109.500 22 C 108.505 20.900, 107.465 20, 107.190 20 C 106.915 20, 107.505 20.900, 108.500 22 M 120 25.030 C 118.952 25.728, 119.855 25.832, 123 25.375 C 128.601 24.562, 129.400 23.995, 124.917 24.015 C 123.037 24.024, 120.825 24.480, 120 25.030 M 143.530 33.804 C 145.484 38.526, 145.963 43.498, 145.022 49.294 C 143.030 61.572, 144.238 70.306, 148.098 71.531 C 149.160 71.868, 149.741 72.610, 149.390 73.179 C 148.979 73.843, 148.443 73.728, 147.890 72.857 C 147.417 72.111, 147.024 71.853, 147.015 72.285 C 146.982 74.013, 150.286 77.942, 151.264 77.337 C 151.843 76.979, 152.014 77.168, 151.648 77.760 C 150.962 78.870, 157.829 83.707, 159.375 83.202 C 159.856 83.045, 161.077 83.665, 162.088 84.580 C 163.285 85.663, 164.549 85.970, 165.713 85.463 C 166.696 85.034, 167.838 84.754, 168.250 84.841 C 168.662 84.929, 169 84.523, 169 83.941 C 169 83.359, 169.520 83.203, 170.155 83.595 C 170.868 84.037, 171.038 83.870, 170.598 83.158 C 170.078 82.317, 169.069 82.430, 166.850 83.577 C 165.180 84.441, 163.556 84.889, 163.240 84.574 C 162.925 84.258, 163.240 84, 163.940 84 C 164.649 84, 164.964 83.349, 164.651 82.532 C 164.341 81.725, 164.587 80.755, 165.198 80.378 C 165.893 79.948, 166.026 80.149, 165.554 80.913 C 165.002 81.806, 165.698 82.029, 168.150 81.743 L 171.500 81.353 171.413 75.169 C 171.330 69.325, 171.422 69.072, 173.087 70.579 C 174.707 72.045, 174.827 72.030, 174.587 70.391 C 174.443 69.410, 173.815 68.438, 173.192 68.231 C 172.370 67.957, 172.394 67.490, 173.279 66.531 C 173.951 65.805, 174.838 65.414, 175.250 65.664 C 176.587 66.473, 176.043 60.984, 174.488 57.977 C 173.082 55.259, 173.100 55.100, 174.738 55.714 C 176.329 56.310, 176.359 56.187, 175.043 54.437 C 174.242 53.372, 172.667 51.673, 171.543 50.663 C 170.419 49.653, 170.063 49.117, 170.750 49.472 C 173.373 50.827, 171.835 48.084, 168.060 44.673 C 163.430 40.490, 160.653 38.973, 150.423 35.033 C 144.095 32.596, 142.945 32.391, 143.530 33.804 M 81.053 58.436 C 80.294 59.350, 80.039 61.018, 80.423 62.548 C 80.968 64.722, 81.553 65.073, 84.183 64.811 C 87.986 64.431, 89.985 61.791, 88.394 59.250 C 86.960 56.960, 82.672 56.485, 81.053 58.436 M 121.200 69.200 C 118.155 72.245, 120.864 77.443, 125.175 76.827 C 128.112 76.407, 129.926 71.821, 128.050 69.560 C 126.512 67.707, 122.884 67.516, 121.200 69.200 M 93.667 70.667 C 92.121 72.213, 93.134 76.042, 95.500 77.592 C 98.738 79.714, 98.651 80.488, 95.006 81.998 C 92.468 83.049, 91.617 82.979, 89.426 81.543 C 88.004 80.612, 86.298 78.559, 85.635 76.983 C 84.772 74.931, 84.039 74.358, 83.055 74.966 C 82.300 75.433, 81.004 75.555, 80.177 75.238 C 79.149 74.843, 78.918 75.059, 79.449 75.917 C 79.876 76.609, 81.075 76.952, 82.113 76.681 C 83.264 76.380, 84 76.706, 84 77.517 C 84 78.248, 85.149 80.212, 86.553 81.881 C 88.658 84.382, 88.989 85.540, 88.440 88.469 C 86.823 97.088, 98.170 99.672, 103.857 91.980 C 105.205 90.156, 106.964 89, 108.390 89 C 109.672 89, 112.246 87.974, 114.110 86.721 C 117.415 84.499, 117.546 84.489, 119.333 86.304 C 120.342 87.329, 121.440 87.894, 121.773 87.560 C 122.106 87.227, 121.394 86.264, 120.190 85.420 C 118.985 84.577, 117.990 83.125, 117.978 82.193 C 117.959 80.801, 117.649 80.895, 116.228 82.723 C 115.277 83.946, 113.037 85.453, 111.250 86.071 C 108.524 87.014, 107.394 86.882, 104.250 85.251 C 99.957 83.025, 98.928 80.475, 101.937 79.520 C 104.609 78.672, 107 76.243, 107 74.378 C 107 71.650, 95.800 68.533, 93.667 70.667 M 200.400 72.836 C 195.142 76.660, 189.546 83.010, 186.950 88.098 C 184.970 91.979, 184.949 92.231, 186.657 91.539 C 192.960 88.984, 196.244 89.177, 194.500 92 C 193.661 93.357, 194.437 93.262, 198.686 91.487 C 203.103 89.641, 203.760 90.149, 202.222 94.222 C 200.789 98.019, 201.139 98.555, 203.915 96.821 C 207.499 94.583, 209.374 87.938, 208.643 80.068 C 207.593 68.772, 206.866 68.134, 200.400 72.836 M 100.500 73 C 100.840 73.550, 101.541 74, 102.059 74 C 102.577 74, 103 73.550, 103 73 C 103 72.450, 102.298 72, 101.441 72 C 100.584 72, 100.160 72.450, 100.500 73 M 168.923 72.250 C 168.337 74.167, 168.364 75.972, 168.997 76.995 C 169.462 77.748, 169.725 76.996, 169.649 75.129 C 169.541 72.486, 169.230 71.250, 168.923 72.250 M 149.733 75.124 C 150.412 75.808, 151.219 76.115, 151.526 75.807 C 151.834 75.499, 151.279 74.940, 150.293 74.564 C 148.868 74.022, 148.753 74.136, 149.733 75.124 M 93.851 84.129 C 92.349 84.679, 90.646 86.440, 89.920 88.194 C 88.748 91.022, 88.836 91.448, 90.930 93.144 C 94.320 95.890, 97.762 95.467, 101.099 91.894 C 104.573 88.175, 104.665 87.426, 101.828 85.908 C 99.915 84.884, 99.322 85.148, 96.855 88.123 C 95.314 89.980, 94.042 91.147, 94.027 90.715 C 93.991 89.675, 97.179 84.698, 98.477 83.765 C 99.922 82.728, 97.061 82.952, 93.851 84.129 M 185.500 93.909 C 182.750 95.499, 179.204 98.168, 177.619 99.841 L 174.739 102.882 177.806 106.755 C 179.493 108.885, 181.416 111.818, 182.079 113.273 C 183.122 115.562, 183.568 115.769, 185.392 114.811 C 186.551 114.201, 188.776 112.642, 190.335 111.345 C 191.894 110.048, 193.529 109.209, 193.968 109.480 C 194.407 109.752, 196.328 110.222, 198.236 110.525 C 201.670 111.071, 201.733 111.013, 204.353 104.972 C 205.809 101.615, 207 98.480, 207 98.004 C 207 97.529, 204.895 98.317, 202.322 99.755 C 199.259 101.467, 197.847 101.874, 198.231 100.935 C 198.554 100.146, 199.565 97.752, 200.478 95.616 C 202.066 91.902, 202.059 91.767, 200.319 92.508 C 196.271 94.232, 193 94.279, 193 92.613 C 193 90.306, 191.194 90.618, 185.500 93.909 M 195.924 116.750 L 193.500 119.500 196.250 117.076 C 198.820 114.810, 199.459 114, 198.674 114 C 198.495 114, 197.258 115.237, 195.924 116.750 M 67.584 132.500 C 67.800 135.800, 68.248 142.438, 68.578 147.250 L 69.180 156 72.031 156 C 73.599 156, 75.134 156.408, 75.442 156.907 C 75.751 157.405, 75.109 157.580, 74.017 157.294 C 70.380 156.343, 67.252 157.838, 66.127 161.066 C 65.183 163.774, 65.346 164.437, 67.481 166.572 C 69.542 168.633, 70.862 168.998, 76.205 168.985 C 83.638 168.968, 86.636 167.664, 89.700 163.117 L 91.961 159.762 88.056 155.326 C 85.908 152.886, 83.499 149.002, 82.704 146.695 C 81.856 144.235, 79.015 140.225, 75.837 137 C 72.856 133.975, 69.691 130.375, 68.804 129 C 67.236 126.571, 67.202 126.671, 67.584 132.500 M 94 149.765 C 94 151.510, 97.717 153.266, 98.552 151.916 C 98.923 151.316, 98.659 150.302, 97.966 149.663 C 97.001 148.772, 96.871 148.792, 97.412 149.750 C 98.312 151.343, 96.778 151.378, 95.200 149.800 C 94.307 148.907, 94 148.898, 94 149.765 M 143.657 160.508 C 141.645 164.743, 140 168.386, 140 168.604 C 140 168.822, 141.912 168.999, 144.250 168.997 L 148.500 168.994 148.714 162.345 C 149.047 152.029, 147.884 151.606, 143.657 160.508 M 92 162.001 C 91.365 163.186, 91.081 164.768, 91.368 165.516 C 92.111 167.452, 98.462 168.988, 105.750 168.994 L 112 169 112 165.628 L 112 162.257 104.250 161.755 C 99.987 161.478, 95.747 160.935, 94.827 160.548 C 93.676 160.065, 92.793 160.518, 92 162.001 M 126 161.383 C 126 161.594, 126.901 162.002, 128.001 162.290 C 129.102 162.578, 129.751 162.405, 129.442 161.907 C 128.904 161.036, 126 160.594, 126 161.383 M 70 164.941 C 70 165.459, 70.445 166.157, 70.989 166.493 C 71.555 166.843, 71.723 166.442, 71.382 165.552 C 70.717 163.820, 70 163.503, 70 164.941 M 116.136 166.693 C 116.059 167.940, 116.959 169.558, 118.223 170.443 C 122.249 173.263, 131 171.908, 131 168.465 C 131 167.357, 130.513 167.487, 129 169 C 127.783 170.217, 125.667 171, 123.594 171 C 120.601 171, 120.239 170.727, 120.614 168.750 C 121.012 166.653, 120.976 166.636, 120.091 168.500 C 119.203 170.368, 119.131 170.335, 119 168 C 118.872 165.717, 118.790 165.674, 118.054 167.500 C 117.303 169.367, 117.217 169.333, 116.761 167 C 116.324 164.766, 116.258 164.734, 116.136 166.693" stroke="none" fill="#242119" fill-rule="evenodd"/><path d="M 106 18.887 C 106 19.396, 105.115 19.581, 104.034 19.299 C 102.952 19.016, 99.697 19.353, 96.800 20.048 C 93.903 20.743, 86.656 21.354, 80.697 21.406 C 71.478 21.486, 69.715 21.761, 68.881 23.250 C 68.342 24.212, 67.298 25, 66.561 25 C 65.824 25, 64.159 25.885, 62.861 26.967 C 60.635 28.821, 60.614 28.937, 62.500 28.997 C 64.323 29.055, 64.347 29.150, 62.773 30.067 C 60.818 31.207, 55 39.314, 55 40.899 C 55 41.470, 55.788 41.654, 56.750 41.308 C 58.077 40.832, 57.914 41.323, 56.079 43.336 C 54.748 44.797, 53.945 46.278, 54.294 46.628 C 54.644 46.977, 54.425 48.206, 53.808 49.358 C 48.578 59.131, 53.463 63.859, 63.680 58.913 C 68.370 56.642, 72.354 52.381, 71.332 50.728 C 70.979 50.158, 71.158 49.980, 71.729 50.333 C 73.112 51.187, 74.709 46.736, 75.383 40.148 C 76.062 33.509, 79.803 26.903, 84.544 23.973 C 88.863 21.303, 90.072 21.763, 85.974 24.517 C 82.661 26.744, 78.544 33.806, 77.533 39 C 77.158 40.925, 76.629 43.288, 76.358 44.250 C 75.976 45.605, 76.501 46.022, 78.683 46.100 C 81.252 46.191, 81.300 46.257, 79.234 46.850 C 77.987 47.207, 75.287 49.750, 73.234 52.500 C 70.719 55.867, 67.807 58.316, 64.316 60 C 58.508 62.801, 56.732 65.656, 56.820 72.048 C 56.881 76.434, 60.173 82.972, 64.228 86.758 L 66.647 89.017 64.349 95.758 C 62.163 102.172, 60.994 114.146, 63.007 109.500 C 63.576 108.188, 63.695 109.220, 63.354 112.500 C 63.010 115.815, 63.156 117.046, 63.788 116.151 C 64.491 115.155, 64.914 115.726, 65.403 118.337 C 66.132 122.218, 72.318 132.077, 76.473 135.976 C 78.772 138.135, 79.026 138.199, 78.449 136.476 C 78.085 135.389, 78.681 135.850, 79.774 137.500 C 82.741 141.979, 90.270 148.969, 89.468 146.500 C 89.111 145.400, 89.910 146.300, 91.245 148.500 C 92.579 150.700, 93.509 152.698, 93.312 152.940 C 93.115 153.182, 90.688 151.157, 87.918 148.440 C 83.277 143.886, 82.971 143.734, 84.007 146.489 C 87.471 155.694, 93.106 159.618, 104.368 160.670 L 111 161.289 111 154.041 L 111 146.793 107.299 150.043 C 105.148 151.931, 103.437 152.812, 103.215 152.146 C 103.005 151.516, 102.244 151, 101.524 151 C 100.803 151, 99.931 150.261, 99.584 149.359 C 99.065 148.005, 99.214 147.933, 100.433 148.945 C 101.247 149.620, 102.344 149.906, 102.871 149.580 C 103.398 149.254, 103.993 149.480, 104.194 150.083 C 104.395 150.685, 106.720 148.868, 109.361 146.045 C 112.189 143.022, 113.896 141.752, 113.514 142.956 C 112.562 145.955, 114.222 145.473, 119.667 141.169 C 122.333 139.062, 125.031 137.510, 125.664 137.721 C 127.222 138.241, 129.854 134.294, 130.600 130.319 C 130.963 128.384, 131.966 126.828, 133.077 126.476 C 135.863 125.591, 141.729 118.292, 145.112 111.500 C 146.756 108.200, 147.803 106.625, 147.439 108 C 145.671 114.682, 139.816 123.600, 135.295 126.500 C 133.288 127.788, 131.958 129.621, 131.562 131.649 C 130.843 135.330, 127.450 140, 125.494 140 C 124.745 140, 121.740 141.446, 118.816 143.214 C 115.892 144.982, 113.356 146.513, 113.181 146.617 C 113.005 146.720, 112.882 150.970, 112.906 156.061 C 112.977 171.195, 114.891 174, 125.146 174 C 134.409 174, 136.372 172.293, 143.150 158.352 C 148.800 146.731, 151.207 142.696, 148.954 148.621 C 147.921 151.337, 149.534 158, 151.224 158 C 151.676 158, 151.311 159.122, 150.413 160.493 C 146.394 166.626, 152.102 170.667, 163.493 169.753 C 175.070 168.823, 177.394 166.173, 182.623 147.945 C 186.035 136.051, 185.732 125.449, 181.731 116.719 C 178.896 110.531, 170.814 101.360, 163.685 96.240 L 159.310 93.098 155.405 97.169 C 151.605 101.129, 143.023 106.018, 140 105.943 C 139.175 105.923, 140.708 105.044, 143.406 103.991 C 146.105 102.937, 149.653 100.820, 151.291 99.287 C 154.566 96.222, 160 88.247, 160 86.505 C 160 85.898, 158.464 84.846, 156.586 84.167 C 152.037 82.522, 146.695 76.440, 144.498 70.404 C 143.516 67.707, 141.765 64.653, 140.607 63.617 L 138.500 61.734 140.649 62.402 C 142.736 63.051, 142.819 62.736, 143.517 51.572 C 143.912 45.248, 143.946 38.920, 143.592 37.511 C 142.007 31.194, 128.870 21.556, 120.704 20.718 C 118.670 20.509, 116.704 20.037, 116.336 19.669 C 115.116 18.449, 112.844 18.938, 113.633 20.250 C 114.205 21.203, 114.041 21.235, 112.942 20.388 C 110.927 18.834, 106 17.769, 106 18.887 M 108.500 22 C 109.495 23.100, 110.535 24, 110.810 24 C 111.085 24, 110.495 23.100, 109.500 22 C 108.505 20.900, 107.465 20, 107.190 20 C 106.915 20, 107.505 20.900, 108.500 22 M 120 25.030 C 118.952 25.728, 119.855 25.832, 123 25.375 C 128.601 24.562, 129.400 23.995, 124.917 24.015 C 123.037 24.024, 120.825 24.480, 120 25.030 M 143.530 33.804 C 145.484 38.526, 145.963 43.498, 145.022 49.294 C 143.030 61.572, 144.238 70.306, 148.098 71.531 C 149.160 71.868, 149.741 72.610, 149.390 73.179 C 148.979 73.843, 148.443 73.728, 147.890 72.857 C 147.417 72.111, 147.024 71.853, 147.015 72.285 C 146.982 74.013, 150.286 77.942, 151.264 77.337 C 151.843 76.979, 152.014 77.168, 151.648 77.760 C 150.962 78.870, 157.829 83.707, 159.375 83.202 C 159.856 83.045, 161.077 83.665, 162.088 84.580 C 163.285 85.663, 164.549 85.970, 165.713 85.463 C 166.696 85.034, 167.838 84.754, 168.250 84.841 C 168.662 84.929, 169 84.523, 169 83.941 C 169 83.359, 169.520 83.203, 170.155 83.595 C 170.868 84.037, 171.038 83.870, 170.598 83.158 C 170.078 82.317, 169.069 82.430, 166.850 83.577 C 165.180 84.441, 163.556 84.889, 163.240 84.574 C 162.925 84.258, 163.240 84, 163.940 84 C 164.649 84, 164.964 83.349, 164.651 82.532 C 164.341 81.725, 164.587 80.755, 165.198 80.378 C 165.893 79.948, 166.026 80.149, 165.554 80.913 C 165.002 81.806, 165.698 82.029, 168.150 81.743 L 171.500 81.353 171.413 75.169 C 171.330 69.325, 171.422 69.072, 173.087 70.579 C 174.707 72.045, 174.827 72.030, 174.587 70.391 C 174.443 69.410, 173.815 68.438, 173.192 68.231 C 172.370 67.957, 172.394 67.490, 173.279 66.531 C 173.951 65.805, 174.838 65.414, 175.250 65.664 C 176.587 66.473, 176.043 60.984, 174.488 57.977 C 173.082 55.259, 173.100 55.100, 174.738 55.714 C 176.329 56.310, 176.359 56.187, 175.043 54.437 C 174.242 53.372, 172.667 51.673, 171.543 50.663 C 170.419 49.653, 170.063 49.117, 170.750 49.472 C 173.373 50.827, 171.835 48.084, 168.060 44.673 C 163.430 40.490, 160.653 38.973, 150.423 35.033 C 144.095 32.596, 142.945 32.391, 143.530 33.804 M 81.053 58.436 C 80.294 59.350, 80.039 61.018, 80.423 62.548 C 80.968 64.722, 81.553 65.073, 84.183 64.811 C 87.986 64.431, 89.985 61.791, 88.394 59.250 C 86.960 56.960, 82.672 56.485, 81.053 58.436 M 121.200 69.200 C 118.155 72.245, 120.864 77.443, 125.175 76.827 C 128.112 76.407, 129.926 71.821, 128.050 69.560 C 126.512 67.707, 122.884 67.516, 121.200 69.200 M 93.667 70.667 C 92.121 72.213, 93.134 76.042, 95.500 77.592 C 98.738 79.714, 98.651 80.488, 95.006 81.998 C 92.468 83.049, 91.617 82.979, 89.426 81.543 C 88.004 80.612, 86.298 78.559, 85.635 76.983 C 84.772 74.931, 84.039 74.358, 83.055 74.966 C 82.300 75.433, 81.004 75.555, 80.177 75.238 C 79.149 74.843, 78.918 75.059, 79.449 75.917 C 79.876 76.609, 81.075 76.952, 82.113 76.681 C 83.264 76.380, 84 76.706, 84 77.517 C 84 78.248, 85.149 80.212, 86.553 81.881 C 88.658 84.382, 88.989 85.540, 88.440 88.469 C 86.823 97.088, 98.170 99.672, 103.857 91.980 C 105.205 90.156, 106.964 89, 108.390 89 C 109.672 89, 112.246 87.974, 114.110 86.721 C 117.415 84.499, 117.546 84.489, 119.333 86.304 C 120.342 87.329, 121.440 87.894, 121.773 87.560 C 122.106 87.227, 121.394 86.264, 120.190 85.420 C 118.985 84.577, 117.990 83.125, 117.978 82.193 C 117.959 80.801, 117.649 80.895, 116.228 82.723 C 115.277 83.946, 113.037 85.453, 111.250 86.071 C 108.524 87.014, 107.394 86.882, 104.250 85.251 C 99.957 83.025, 98.928 80.475, 101.937 79.520 C 104.609 78.672, 107 76.243, 107 74.378 C 107 71.650, 95.800 68.533, 93.667 70.667 M 100.500 73 C 100.840 73.550, 101.541 74, 102.059 74 C 102.577 74, 103 73.550, 103 73 C 103 72.450, 102.298 72, 101.441 72 C 100.584 72, 100.160 72.450, 100.500 73 M 168.923 72.250 C 168.337 74.167, 168.364 75.972, 168.997 76.995 C 169.462 77.748, 169.725 76.996, 169.649 75.129 C 169.541 72.486, 169.230 71.250, 168.923 72.250 M 149.733 75.124 C 150.412 75.808, 151.219 76.115, 151.526 75.807 C 151.834 75.499, 151.279 74.940, 150.293 74.564 C 148.868 74.022, 148.753 74.136, 149.733 75.124 M 93.851 84.129 C 92.349 84.679, 90.646 86.440, 89.920 88.194 C 88.748 91.022, 88.836 91.448, 90.930 93.144 C 94.320 95.890, 97.762 95.467, 101.099 91.894 C 104.573 88.175, 104.665 87.426, 101.828 85.908 C 99.915 84.884, 99.322 85.148, 96.855 88.123 C 95.314 89.980, 94.042 91.147, 94.027 90.715 C 93.991 89.675, 97.179 84.698, 98.477 83.765 C 99.922 82.728, 97.061 82.952, 93.851 84.129 M 185.500 93.909 C 182.750 95.499, 179.204 98.168, 177.619 99.841 L 174.739 102.882 177.806 106.755 C 179.493 108.885, 181.416 111.818, 182.079 113.273 C 183.122 115.562, 183.568 115.769, 185.392 114.811 C 186.551 114.201, 188.776 112.642, 190.335 111.345 C 191.894 110.048, 193.529 109.209, 193.968 109.480 C 194.407 109.752, 196.328 110.222, 198.236 110.525 C 201.670 111.071, 201.733 111.013, 204.353 104.972 C 205.809 101.615, 207 98.480, 207 98.004 C 207 97.529, 204.895 98.317, 202.322 99.755 C 199.259 101.467, 197.847 101.874, 198.231 100.935 C 198.554 100.146, 199.565 97.752, 200.478 95.616 C 202.066 91.902, 202.059 91.767, 200.319 92.508 C 196.271 94.232, 193 94.279, 193 92.613 C 193 90.306, 191.194 90.618, 185.500 93.909 M 195.924 116.750 L 193.500 119.500 196.250 117.076 C 198.820 114.810, 199.459 114, 198.674 114 C 198.495 114, 197.258 115.237, 195.924 116.750 M 67.584 132.500 C 67.800 135.800, 68.248 142.438, 68.578 147.250 L 69.180 156 72.031 156 C 73.599 156, 75.134 156.408, 75.442 156.907 C 75.751 157.405, 75.109 157.580, 74.017 157.294 C 70.380 156.343, 67.252 157.838, 66.127 161.066 C 65.183 163.774, 65.346 164.437, 67.481 166.572 C 69.542 168.633, 70.862 168.998, 76.205 168.985 C 83.638 168.968, 86.636 167.664, 89.700 163.117 L 91.961 159.762 88.056 155.326 C 85.908 152.886, 83.499 149.002, 82.704 146.695 C 81.856 144.235, 79.015 140.225, 75.837 137 C 72.856 133.975, 69.691 130.375, 68.804 129 C 67.236 126.571, 67.202 126.671, 67.584 132.500 M 94 149.765 C 94 151.510, 97.717 153.266, 98.552 151.916 C 98.923 151.316, 98.659 150.302, 97.966 149.663 C 97.001 148.772, 96.871 148.792, 97.412 149.750 C 98.312 151.343, 96.778 151.378, 95.200 149.800 C 94.307 148.907, 94 148.898, 94 149.765 M 143.657 160.508 C 141.645 164.743, 140 168.386, 140 168.604 C 140 168.822, 141.912 168.999, 144.250 168.997 L 148.500 168.994 148.714 162.345 C 149.047 152.029, 147.884 151.606, 143.657 160.508 M 92 162.001 C 91.365 163.186, 91.081 164.768, 91.368 165.516 C 92.111 167.452, 98.462 168.988, 105.750 168.994 L 112 169 112 165.628 L 112 162.257 104.250 161.755 C 99.987 161.478, 95.747 160.935, 94.827 160.548 C 93.676 160.065, 92.793 160.518, 92 162.001 M 126 161.383 C 126 161.594, 126.901 162.002, 128.001 162.290 C 129.102 162.578, 129.751 162.405, 129.442 161.907 C 128.904 161.036, 126 160.594, 126 161.383 M 70 164.941 C 70 165.459, 70.445 166.157, 70.989 166.493 C 71.555 166.843, 71.723 166.442, 71.382 165.552 C 70.717 163.820, 70 163.503, 70 164.941 M 116.136 166.693 C 116.059 167.940, 116.959 169.558, 118.223 170.443 C 122.249 173.263, 131 171.908, 131 168.465 C 131 167.357, 130.513 167.487, 129 169 C 127.783 170.217, 125.667 171, 123.594 171 C 120.601 171, 120.239 170.727, 120.614 168.750 C 121.012 166.653, 120.976 166.636, 120.091 168.500 C 119.203 170.368, 119.131 170.335, 119 168 C 118.872 165.717, 118.790 165.674, 118.054 167.500 C 117.303 169.367, 117.217 169.333, 116.761 167 C 116.324 164.766, 116.258 164.734, 116.136 166.693" stroke="none" fill="#e6cca9" fill-rule="evenodd"/></svg>